<svg width="24" height="25" viewBox="0 0 385 385" fill="none" xmlns="http://www.w3.org/2000/svg">
<rect x="143.24" y="171.555" width="41.6394" height="141.574" transform="rotate(90 143.24 171.555)" fill="#0BA57F"/>
<rect x="41.6392" y="213.194" width="41.6394" height="211.528" transform="rotate(-180 41.6392 213.194)" fill="#0BA57F"/>
<path d="M0.199638 42.5623L0.315368 0.923092C0.315368 0.923092 25.4898 -1.00573 41.4289 0.923312C58.4536 2.98374 67.9335 5.71598 83.9821 11.7498C98.9826 17.3895 107.606 20.8353 120.695 30.0713C130.306 36.8537 143.223 50.0583 143.223 50.0583L143.223 96.6944C143.223 96.6944 126.958 83.7496 115.689 76.7074C108.392 72.1478 104.4 69.2911 96.498 65.8811C83.5853 60.3085 75.4734 58.7223 61.4542 57.553C53.6611 56.9029 41.4292 57.5529 41.4292 57.5529L0.199638 42.5623Z" fill="#0BA57F"/>
<rect x="240.094" y="213.195" width="41.6394" height="141.574" transform="rotate(-90 240.094 213.195)" fill="#0BA57F"/>
<rect x="341.694" y="171.555" width="41.6394" height="211.528" fill="#0BA57F"/>
<path d="M383.134 342.187L383.018 383.827C383.018 383.827 357.844 385.755 341.905 383.826C324.88 381.766 315.4 379.034 299.351 373C284.351 367.36 275.727 363.914 262.639 354.678C253.027 347.896 240.111 334.691 240.111 334.691L240.11 288.055C240.11 288.055 256.375 301 267.645 308.042C274.941 312.602 278.934 315.459 286.835 318.869C299.748 324.441 307.86 326.027 321.879 327.197C329.672 327.847 341.904 327.197 341.904 327.197L383.134 342.187Z" fill="#0BA57F"/>
<rect x="171.554" y="0.000732422" width="41.6394" height="384.748" fill="#0BA57F"/>
<rect x="171.555" y="241.76" width="41.6394" height="141.574" fill="#0BA57F"/>
<rect x="213.194" y="343.361" width="41.6394" height="211.528" transform="rotate(90 213.194 343.361)" fill="#0BA57F"/>
<path d="M42.5622 384.801L0.92297 384.685C0.92297 384.685 -1.00585 359.51 0.923189 343.571C2.98362 326.547 5.71585 317.067 11.7497 301.018C17.3894 286.018 20.8352 277.394 30.0712 264.305C36.8536 254.694 50.0582 241.777 50.0582 241.777L96.6943 241.777C96.6943 241.777 83.7495 258.042 76.7073 269.312C72.1477 276.608 69.2909 280.6 65.8809 288.502C60.3084 301.415 58.7222 309.527 57.5529 323.546C56.9028 331.339 57.5528 343.571 57.5528 343.571L42.5622 384.801Z" fill="#0BA57F"/>
<rect x="213.194" y="143.24" width="41.6394" height="141.574" transform="rotate(-180 213.194 143.24)" fill="#0BA57F"/>
<rect x="171.554" y="41.6401" width="41.6394" height="211.528" transform="rotate(-90 171.554 41.6401)" fill="#0BA57F"/>
<path d="M342.187 0.200127L383.826 0.315856C383.826 0.315856 385.755 25.4903 383.826 41.4294C381.765 58.4541 379.033 67.934 372.999 83.9826C367.36 98.9831 363.914 107.607 354.678 120.695C347.895 130.307 334.691 143.223 334.691 143.223L288.055 143.224C288.055 143.224 301 126.959 308.042 115.689C312.601 108.393 315.458 104.4 318.868 96.4985C324.441 83.5858 326.027 75.4739 327.196 61.4547C327.846 53.6616 327.196 41.4297 327.196 41.4297L342.187 0.200127Z" fill="#0BA57F"/>
</svg>