<svg width="1061" height="385" viewBox="0 0 1061 385" fill="none" xmlns="http://www.w3.org/2000/svg">
<rect x="143.24" y="171.555" width="41.6394" height="141.574" transform="rotate(90 143.24 171.555)" fill="#0BA57F"/>
<rect x="41.6392" y="213.194" width="41.6394" height="211.528" transform="rotate(-180 41.6392 213.194)" fill="#0BA57F"/>
<path d="M0.199638 42.5623L0.315368 0.923092C0.315368 0.923092 25.4898 -1.00573 41.4289 0.923312C58.4536 2.98374 67.9335 5.71598 83.9821 11.7498C98.9826 17.3895 107.606 20.8353 120.695 30.0713C130.306 36.8537 143.223 50.0583 143.223 50.0583L143.223 96.6944C143.223 96.6944 126.958 83.7496 115.689 76.7074C108.392 72.1478 104.4 69.2911 96.498 65.8811C83.5853 60.3085 75.4734 58.7223 61.4542 57.553C53.6611 56.9029 41.4292 57.5529 41.4292 57.5529L0.199638 42.5623Z" fill="#0BA57F"/>
<rect x="240.094" y="213.195" width="41.6394" height="141.574" transform="rotate(-90 240.094 213.195)" fill="#0BA57F"/>
<rect x="341.694" y="171.555" width="41.6394" height="211.528" fill="#0BA57F"/>
<path d="M383.134 342.187L383.018 383.827C383.018 383.827 357.844 385.755 341.905 383.826C324.88 381.766 315.4 379.034 299.351 373C284.351 367.36 275.727 363.914 262.639 354.678C253.027 347.896 240.111 334.691 240.111 334.691L240.11 288.055C240.11 288.055 256.375 301 267.645 308.042C274.941 312.602 278.934 315.459 286.835 318.869C299.748 324.441 307.86 326.027 321.879 327.197C329.672 327.847 341.904 327.197 341.904 327.197L383.134 342.187Z" fill="#0BA57F"/>
<rect x="171.554" y="0.000732422" width="41.6394" height="384.748" fill="#0BA57F"/>
<rect x="171.555" y="241.76" width="41.6394" height="141.574" fill="#0BA57F"/>
<rect x="213.194" y="343.361" width="41.6394" height="211.528" transform="rotate(90 213.194 343.361)" fill="#0BA57F"/>
<path d="M42.5622 384.801L0.92297 384.685C0.92297 384.685 -1.00585 359.51 0.923189 343.571C2.98362 326.547 5.71585 317.067 11.7497 301.018C17.3894 286.018 20.8352 277.394 30.0712 264.305C36.8536 254.694 50.0582 241.777 50.0582 241.777L96.6943 241.777C96.6943 241.777 83.7495 258.042 76.7073 269.312C72.1477 276.608 69.2909 280.6 65.8809 288.502C60.3084 301.415 58.7222 309.527 57.5529 323.546C56.9028 331.339 57.5528 343.571 57.5528 343.571L42.5622 384.801Z" fill="#0BA57F"/>
<rect x="213.194" y="143.24" width="41.6394" height="141.574" transform="rotate(-180 213.194 143.24)" fill="#0BA57F"/>
<rect x="171.554" y="41.6401" width="41.6394" height="211.528" transform="rotate(-90 171.554 41.6401)" fill="#0BA57F"/>
<path d="M342.187 0.200127L383.826 0.315856C383.826 0.315856 385.755 25.4903 383.826 41.4294C381.765 58.4541 379.033 67.934 372.999 83.9826C367.36 98.9831 363.914 107.607 354.678 120.695C347.895 130.307 334.691 143.223 334.691 143.223L288.055 143.224C288.055 143.224 301 126.959 308.042 115.689C312.601 108.393 315.458 104.4 318.868 96.4985C324.441 83.5858 326.027 75.4739 327.196 61.4547C327.846 53.6616 327.196 41.4297 327.196 41.4297L342.187 0.200127Z" fill="#0BA57F"/>
<path d="M556.432 54.3L518.032 159H492.532L454.132 54.3H476.632L505.432 137.55L534.082 54.3H556.432ZM646.273 115.65C646.273 118.65 646.073 121.35 645.673 123.75H584.923C585.423 129.75 587.523 134.45 591.223 137.85C594.923 141.25 599.473 142.95 604.873 142.95C612.673 142.95 618.223 139.6 621.523 132.9H644.173C641.773 140.9 637.173 147.5 630.373 152.7C623.573 157.8 615.223 160.35 605.323 160.35C597.323 160.35 590.123 158.6 583.723 155.1C577.423 151.5 572.473 146.45 568.873 139.95C565.373 133.45 563.623 125.95 563.623 117.45C563.623 108.85 565.373 101.3 568.873 94.8C572.373 88.3 577.273 83.3 583.573 79.8C589.873 76.3 597.123 74.55 605.323 74.55C613.223 74.55 620.273 76.25 626.473 79.65C632.773 83.05 637.623 87.9 641.023 94.2C644.523 100.4 646.273 107.55 646.273 115.65ZM624.523 109.65C624.423 104.25 622.473 99.95 618.673 96.75C614.873 93.45 610.223 91.8 604.723 91.8C599.523 91.8 595.123 93.4 591.523 96.6C588.023 99.7 585.873 104.05 585.073 109.65H624.523ZM707.651 74.7C717.551 74.7 725.551 77.85 731.651 84.15C737.751 90.35 740.801 99.05 740.801 110.25V159H719.801V113.1C719.801 106.5 718.151 101.45 714.851 97.95C711.551 94.35 707.051 92.55 701.351 92.55C695.551 92.55 690.951 94.35 687.551 97.95C684.251 101.45 682.601 106.5 682.601 113.1V159H661.601V75.9H682.601V86.25C685.401 82.65 688.951 79.85 693.251 77.85C697.651 75.75 702.451 74.7 707.651 74.7ZM785.221 93.15V133.35C785.221 136.15 785.871 138.2 787.171 139.5C788.571 140.7 790.871 141.3 794.071 141.3H803.821V159H790.621C772.921 159 764.071 150.4 764.071 133.2V93.15H754.171V75.9H764.071V55.35H785.221V75.9H803.821V93.15H785.221ZM897.375 75.9V159H876.225V148.5C873.525 152.1 869.975 154.95 865.575 157.05C861.275 159.05 856.575 160.05 851.475 160.05C844.975 160.05 839.225 158.7 834.225 156C829.225 153.2 825.275 149.15 822.375 143.85C819.575 138.45 818.175 132.05 818.175 124.65V75.9H839.175V121.65C839.175 128.25 840.825 133.35 844.125 136.95C847.425 140.45 851.925 142.2 857.625 142.2C863.425 142.2 867.975 140.45 871.275 136.95C874.575 133.35 876.225 128.25 876.225 121.65V75.9H897.375ZM939.095 88.8C941.795 84.4 945.295 80.95 949.595 78.45C953.995 75.95 958.995 74.7 964.595 74.7V96.75H959.045C952.445 96.75 947.445 98.3 944.045 101.4C940.745 104.5 939.095 109.9 939.095 117.6V159H918.095V75.9H939.095V88.8ZM1055.99 115.65C1055.99 118.65 1055.79 121.35 1055.39 123.75H994.64C995.14 129.75 997.24 134.45 1000.94 137.85C1004.64 141.25 1009.19 142.95 1014.59 142.95C1022.39 142.95 1027.94 139.6 1031.24 132.9H1053.89C1051.49 140.9 1046.89 147.5 1040.09 152.7C1033.29 157.8 1024.94 160.35 1015.04 160.35C1007.04 160.35 999.84 158.6 993.44 155.1C987.14 151.5 982.19 146.45 978.59 139.95C975.09 133.45 973.34 125.95 973.34 117.45C973.34 108.85 975.09 101.3 978.59 94.8C982.09 88.3 986.99 83.3 993.29 79.8C999.59 76.3 1006.84 74.55 1015.04 74.55C1022.94 74.55 1029.99 76.25 1036.19 79.65C1042.49 83.05 1047.34 87.9 1050.74 94.2C1054.24 100.4 1055.99 107.55 1055.99 115.65ZM1034.24 109.65C1034.14 104.25 1032.19 99.95 1028.39 96.75C1024.59 93.45 1019.94 91.8 1014.44 91.8C1009.24 91.8 1004.84 93.4 1001.24 96.6C997.74 99.7 995.59 104.05 994.79 109.65H1034.24Z" fill="black"/>
<path d="M576.802 225.3V330H555.802V261.9L527.752 330H511.852L483.652 261.9V330H462.652V225.3H486.502L519.802 303.15L553.102 225.3H576.802ZM634.464 331.35C626.464 331.35 619.264 329.6 612.864 326.1C606.464 322.5 601.414 317.45 597.714 310.95C594.114 304.45 592.314 296.95 592.314 288.45C592.314 279.95 594.164 272.45 597.864 265.95C601.664 259.45 606.814 254.45 613.314 250.95C619.814 247.35 627.064 245.55 635.064 245.55C643.064 245.55 650.314 247.35 656.814 250.95C663.314 254.45 668.414 259.45 672.114 265.95C675.914 272.45 677.814 279.95 677.814 288.45C677.814 296.95 675.864 304.45 671.964 310.95C668.164 317.45 662.964 322.5 656.364 326.1C649.864 329.6 642.564 331.35 634.464 331.35ZM634.464 313.05C638.264 313.05 641.814 312.15 645.114 310.35C648.514 308.45 651.214 305.65 653.214 301.95C655.214 298.25 656.214 293.75 656.214 288.45C656.214 280.55 654.114 274.5 649.914 270.3C645.814 266 640.764 263.85 634.764 263.85C628.764 263.85 623.714 266 619.614 270.3C615.614 274.5 613.614 280.55 613.614 288.45C613.614 296.35 615.564 302.45 619.464 306.75C623.464 310.95 628.464 313.05 634.464 313.05ZM739.268 245.7C749.168 245.7 757.168 248.85 763.268 255.15C769.368 261.35 772.418 270.05 772.418 281.25V330H751.418V284.1C751.418 277.5 749.768 272.45 746.468 268.95C743.168 265.35 738.668 263.55 732.968 263.55C727.168 263.55 722.568 265.35 719.168 268.95C715.868 272.45 714.218 277.5 714.218 284.1V330H693.218V246.9H714.218V257.25C717.018 253.65 720.568 250.85 724.868 248.85C729.268 246.75 734.068 245.7 739.268 245.7ZM786.988 288.15C786.988 279.75 788.638 272.3 791.938 265.8C795.338 259.3 799.938 254.3 805.738 250.8C811.538 247.3 817.988 245.55 825.088 245.55C830.488 245.55 835.638 246.75 840.538 249.15C845.438 251.45 849.338 254.55 852.238 258.45V219H873.538V330H852.238V317.7C849.638 321.8 845.988 325.1 841.288 327.6C836.588 330.1 831.138 331.35 824.938 331.35C817.938 331.35 811.538 329.55 805.738 325.95C799.938 322.35 795.338 317.3 791.938 310.8C788.638 304.2 786.988 296.65 786.988 288.15ZM852.388 288.45C852.388 283.35 851.388 279 849.388 275.4C847.388 271.7 844.688 268.9 841.288 267C837.888 265 834.238 264 830.338 264C826.438 264 822.838 264.95 819.538 266.85C816.238 268.75 813.538 271.55 811.438 275.25C809.438 278.85 808.438 283.15 808.438 288.15C808.438 293.15 809.438 297.55 811.438 301.35C813.538 305.05 816.238 307.9 819.538 309.9C822.938 311.9 826.538 312.9 830.338 312.9C834.238 312.9 837.888 311.95 841.288 310.05C844.688 308.05 847.388 305.25 849.388 301.65C851.388 297.95 852.388 293.55 852.388 288.45Z" fill="black"/>
</svg>
